<?xml version="1.0" encoding="UTF-8" standalone="no"?>
<svg
   xmlns:dc="http://purl.org/dc/elements/1.1/"
   xmlns:cc="http://creativecommons.org/ns#"
   xmlns:rdf="http://www.w3.org/1999/02/22-rdf-syntax-ns#"
   xmlns:svg="http://www.w3.org/2000/svg"
   xmlns="http://www.w3.org/2000/svg"
   xmlns:sodipodi="http://sodipodi.sourceforge.net/DTD/sodipodi-0.dtd"
   xmlns:inkscape="http://www.inkscape.org/namespaces/inkscape"
   width="700pt"
   height="700pt"
   version="1.1"
   viewBox="0 0 700 700"
   id="svg70"
   sodipodi:docname="world.svg"
   inkscape:version="1.0.1 (3bc2e813f5, 2020-09-07)"
   inkscape:export-filename="C:\Users\wongm\Documents\mwongprofile\assets\world.png"
   inkscape:export-xdpi="600.29999"
   inkscape:export-ydpi="600.29999">
  <metadata
     id="metadata74">
    <rdf:RDF>
      <cc:Work
         rdf:about="">
        <dc:format>image/svg+xml</dc:format>
        <dc:type
           rdf:resource="http://purl.org/dc/dcmitype/StillImage" />
        <dc:title></dc:title>
      </cc:Work>
    </rdf:RDF>
  </metadata>
  <sodipodi:namedview
     pagecolor="#ffffff"
     bordercolor="#666666"
     borderopacity="1"
     objecttolerance="10"
     gridtolerance="10"
     guidetolerance="10"
     inkscape:pageopacity="0"
     inkscape:pageshadow="2"
     inkscape:window-width="3840"
     inkscape:window-height="2120"
     id="namedview72"
     showgrid="false"
     inkscape:zoom="1.0992857"
     inkscape:cx="466.66667"
     inkscape:cy="466.66667"
     inkscape:window-x="-12"
     inkscape:window-y="-12"
     inkscape:window-maximized="1"
     inkscape:current-layer="svg70" />
  <defs
     id="defs38">
    <symbol
       id="l"
       overflow="visible">
      <path
         d="m37.516-2.25c-1.9297 1.0117-3.9453 1.7734-6.0469 2.2812-2.0938 0.50781-4.2812 0.76562-6.5625 0.76562-6.793 0-12.18-1.8984-16.156-5.7031-3.9688-3.8008-5.9531-8.957-5.9531-15.469 0-6.5195 1.9844-11.68 5.9531-15.484 3.9766-3.8008 9.3633-5.7031 16.156-5.7031 2.2812 0 4.4688 0.25781 6.5625 0.76562 2.1016 0.51172 4.1172 1.2656 6.0469 2.2656v8.4531c-1.9492-1.332-3.8711-2.3047-5.7656-2.9219-1.8984-0.625-3.8906-0.9375-5.9844-0.9375-3.7617 0-6.7188 1.2031-8.875 3.6094-2.1484 2.4062-3.2188 5.7266-3.2188 9.9531 0 4.2109 1.0703 7.5156 3.2188 9.9219 2.1562 2.4062 5.1133 3.6094 8.875 3.6094 2.0938 0 4.0859-0.30469 5.9844-0.92188 1.8945-0.625 3.8164-1.5977 5.7656-2.9219z"
         id="path2" />
    </symbol>
    <symbol
       id="h"
       overflow="visible">
      <path
         d="m27.453-22.281c-0.85547-0.40625-1.7109-0.70312-2.5625-0.89062-0.84375-0.19531-1.6953-0.29688-2.5469-0.29688-2.5234 0-4.4609 0.80859-5.8125 2.4219-1.3555 1.6172-2.0312 3.9297-2.0312 6.9375v14.109h-9.7969v-30.625h9.7969v5.0312c1.25-2.0078 2.6914-3.4727 4.3281-4.3906 1.6328-0.91406 3.5859-1.375 5.8594-1.375 0.33203 0 0.6875 0.015625 1.0625 0.046875 0.38281 0.023438 0.94141 0.078125 1.6719 0.17188z"
         id="path5" />
    </symbol>
    <symbol
       id="a"
       overflow="visible">
      <path
         d="m35.281-15.391v2.7812h-22.891c0.23828 2.3047 1.0664 4.0273 2.4844 5.1719 1.4258 1.1484 3.4141 1.7188 5.9688 1.7188 2.0508 0 4.1562-0.30078 6.3125-0.90625 2.1641-0.61328 4.3906-1.5391 6.6719-2.7812v7.5469c-2.3125 0.875-4.6328 1.5391-6.9531 1.9844-2.3125 0.44531-4.625 0.67188-6.9375 0.67188-5.543 0-9.8516-1.4062-12.922-4.2188-3.0742-2.8203-4.6094-6.7734-4.6094-11.859 0-5 1.5039-8.9258 4.5156-11.781 3.0195-2.8633 7.1758-4.2969 12.469-4.2969 4.8125 0 8.6602 1.4492 11.547 4.3438 2.8945 2.8984 4.3438 6.7734 4.3438 11.625zm-10.062-3.2656c0-1.8516-0.54688-3.3477-1.6406-4.4844-1.0859-1.1445-2.5-1.7188-4.25-1.7188-1.8984 0-3.4375 0.53906-4.625 1.6094-1.1797 1.0625-1.9141 2.5938-2.2031 4.5938z"
         id="path8" />
    </symbol>
    <symbol
       id="g"
       overflow="visible">
      <path
         d="m18.438-13.781c-2.043 0-3.5781 0.35156-4.6094 1.0469-1.0312 0.6875-1.5469 1.7031-1.5469 3.0469 0 1.2422 0.41016 2.2148 1.2344 2.9219 0.83203 0.69922 1.9883 1.0469 3.4688 1.0469 1.8438 0 3.3906-0.66016 4.6406-1.9844 1.2578-1.3203 1.8906-2.9727 1.8906-4.9531v-1.125zm14.953-3.6875v17.469h-9.875v-4.5469c-1.3125 1.8672-2.793 3.2266-4.4375 4.0781-1.6367 0.84375-3.6328 1.2656-5.9844 1.2656-3.168 0-5.7422-0.92578-7.7188-2.7812-1.9805-1.8516-2.9688-4.2539-2.9688-7.2031 0-3.5938 1.2344-6.2266 3.7031-7.9062 2.4688-1.6758 6.3477-2.5156 11.641-2.5156h5.7656v-0.76562c0-1.5508-0.60938-2.6875-1.8281-3.4062s-3.125-1.0781-5.7188-1.0781c-2.0938 0-4.0469 0.21484-5.8594 0.64062-1.8047 0.41797-3.4766 1.043-5.0156 1.875v-7.4688c2.0938-0.50781 4.1953-0.89453 6.3125-1.1562 2.1133-0.25781 4.2266-0.39062 6.3438-0.39062 5.5195 0 9.5039 1.0898 11.953 3.2656 2.457 2.1797 3.6875 5.7188 3.6875 10.625z"
         id="path11" />
    </symbol>
    <symbol
       id="f"
       overflow="visible">
      <path
         d="m15.391-39.328v8.7031h10.094v7h-10.094v12.984c0 1.4297 0.28125 2.3906 0.84375 2.8906 0.57031 0.5 1.6953 0.75 3.375 0.75h5.0312v7h-8.3906c-3.8672 0-6.6055-0.80469-8.2188-2.4219-1.6172-1.6133-2.4219-4.3516-2.4219-8.2188v-12.984h-4.875v-7h4.875v-8.7031z"
         id="path14" />
    </symbol>
    <symbol
       id="e"
       overflow="visible">
      <path
         d="m25.547-26.141v-16.406h9.8438v42.547h-9.8438v-4.4375c-1.3555 1.8125-2.8438 3.1406-4.4688 3.9844-1.6172 0.83203-3.4922 1.25-5.625 1.25-3.7734 0-6.8711-1.5-9.2969-4.5-2.4297-3-3.6406-6.8594-3.6406-11.578 0-4.7266 1.2109-8.5859 3.6406-11.578 2.4258-3 5.5234-4.5 9.2969-4.5 2.1133 0 3.9844 0.42188 5.6094 1.2656 1.6328 0.84375 3.1289 2.1641 4.4844 3.9531zm-6.4531 19.828c2.0938 0 3.6914-0.76562 4.7969-2.2969 1.1016-1.5312 1.6562-3.7539 1.6562-6.6719 0-2.9141-0.55469-5.1406-1.6562-6.6719-1.1055-1.5312-2.7031-2.2969-4.7969-2.2969-2.0859 0-3.6797 0.76562-4.7812 2.2969-1.1055 1.5312-1.6562 3.7578-1.6562 6.6719 0 2.918 0.55078 5.1406 1.6562 6.6719 1.1016 1.5312 2.6953 2.2969 4.7812 2.2969z"
         id="path17" />
    </symbol>
    <symbol
       id="d"
       overflow="visible">
      <path
         d="m21-6.3125c2.0938 0 3.6914-0.76562 4.7969-2.2969 1.1016-1.5312 1.6562-3.7539 1.6562-6.6719 0-2.9141-0.55469-5.1406-1.6562-6.6719-1.1055-1.5312-2.7031-2.2969-4.7969-2.2969s-3.7031 0.77344-4.8281 2.3125c-1.1172 1.5312-1.6719 3.75-1.6719 6.6562 0 2.8984 0.55469 5.1172 1.6719 6.6562 1.125 1.543 2.7344 2.3125 4.8281 2.3125zm-6.5-19.828c1.3438-1.7891 2.832-3.1094 4.4688-3.9531 1.6445-0.84375 3.5352-1.2656 5.6719-1.2656 3.7695 0 6.8672 1.5 9.2969 4.5 2.4258 2.9922 3.6406 6.8516 3.6406 11.578 0 4.7188-1.2148 8.5781-3.6406 11.578-2.4297 3-5.5273 4.5-9.2969 4.5-2.1367 0-4.0273-0.42188-5.6719-1.2656-1.6367-0.85156-3.125-2.1758-4.4688-3.9688v4.4375h-9.7969v-42.547h9.7969z"
         id="path20" />
    </symbol>
    <symbol
       id="c"
       overflow="visible">
      <path
         d="m0.6875-30.625h9.7812l8.2344 20.781 7-20.781h9.7969l-12.891 33.531c-1.293 3.4062-2.8047 5.7852-4.5312 7.1406-1.7188 1.3633-3.9922 2.0469-6.8125 2.0469h-5.6562v-6.4375h3.0625c1.6562 0 2.8594-0.26562 3.6094-0.79688 0.75781-0.52344 1.3516-1.4648 1.7812-2.8281l0.26562-0.85938z"
         id="path23" />
    </symbol>
    <symbol
       id="b"
       overflow="visible">
      <path
         d="m29.922-7.4375h-16.469l-2.5938 7.4375h-10.578l15.109-40.828h12.562l15.109 40.828h-10.578zm-13.844-7.5781h11.188l-5.5781-16.234z"
         id="path26" />
    </symbol>
    <symbol
       id="k"
       overflow="visible">
      <path
         d="m0.28125-40.828h37.625v7.9531h-13.547v32.875h-10.516v-32.875h-13.562z"
         id="path29" />
    </symbol>
    <symbol
       id="j"
       overflow="visible">
      <path
         d="m23.797-33.938c-3.2109 0-5.6992 1.1875-7.4688 3.5625-1.7734 2.3672-2.6562 5.6992-2.6562 10 0 4.2812 0.88281 7.6094 2.6562 9.9844 1.7695 2.3672 4.2578 3.5469 7.4688 3.5469 3.2188 0 5.7109-1.1797 7.4844-3.5469 1.7695-2.375 2.6562-5.7031 2.6562-9.9844 0-4.3008-0.88672-7.6328-2.6562-10-1.7734-2.375-4.2656-3.5625-7.4844-3.5625zm0-7.625c6.5625 0 11.703 1.8828 15.422 5.6406 3.7188 3.75 5.5781 8.9336 5.5781 15.547 0 6.6055-1.8594 11.789-5.5781 15.547-3.7188 3.75-8.8594 5.625-15.422 5.625-6.5547 0-11.695-1.875-15.422-5.625-3.7188-3.7578-5.5781-8.9414-5.5781-15.547 0-6.6133 1.8594-11.797 5.5781-15.547 3.7266-3.7578 8.8672-5.6406 15.422-5.6406z"
         id="path32" />
    </symbol>
    <symbol
       id="i"
       overflow="visible">
      <path
         d="m5.1406-40.828h13.406l9.2969 21.844 9.3438-21.844h13.375v40.828h-9.9531v-29.859l-9.4062 22.016h-6.6719l-9.4062-22.016v29.859h-9.9844z"
         id="path35" />
    </symbol>
  </defs>
  <g
     id="g91"
     transform="matrix(1.2068891,0,0,1.2068891,-75.11835,12.700053)"
     style="stroke-width:0.828577;fill:#0097a7;fill-opacity:0.64999998">
    <path
       d="m 398.16,151.2 c 5.6016,-2.2383 10.078,-5.6016 14.559,-8.9609 21.281,-20.16 19.039,-54.879 19.039,-56 0,-5.6016 -4.4805,-10.078 -10.078,-10.078 -1.1211,0 -35.84,-5.6016 -57.121,14.559 -4.4805,4.4805 -7.8398,8.9609 -11.199,14.559 -3.3594,-15.676 -11.199,-31.355 -25.758,-43.676 -34.719,-29.121 -89.602,-20.16 -91.84,-19.039 -5.6016,1.1211 -8.9609,5.6016 -8.9609,11.199 0,2.2383 -1.1211,58.238 33.602,88.48 8.9609,7.8398 17.922,12.32 28,15.68 -71.68,25.762 -122.08,94.078 -122.08,174.72 0,103.04 84,185.92 185.92,185.92 101.92,0 185.92,-84 185.92,-185.92 -0.008,-87.359 -59.367,-160.16 -140.01,-181.44 z m -45.922,342.72 c -15.68,0 -31.359,-21.281 -42.559,-56 13.441,2.2383 28,3.3594 42.559,3.3594 14.559,0 29.121,-1.1211 42.559,-3.3594 -11.195,34.719 -27.996,56 -42.559,56 z m 0,-75.043 c -16.801,0 -33.602,-1.1211 -49.281,-4.4805 -5.6016,-23.52 -8.9609,-51.52 -8.9609,-82.879 0,-31.359 3.3594,-59.359 8.9609,-82.879 15.68,-2.2383 32.48,-4.4805 49.281,-4.4805 16.801,0 33.602,1.1211 49.281,4.4805 5.6016,23.52 8.9609,51.52 8.9609,82.879 0,31.359 -3.3594,59.359 -8.9609,82.879 -15.68,2.2422 -32.48,4.4805 -49.281,4.4805 z M 278.32,408.799 c -52.641,-14.559 -89.602,-43.68 -89.602,-77.281 0,-33.602 36.961,-62.719 89.602,-77.281 -4.4805,23.52 -6.7188,49.281 -6.7188,77.281 0,28 2.2383,53.762 6.7188,77.281 z m 73.918,-239.68 c 15.68,0 31.359,21.281 42.559,56 -13.441,-2.2383 -28,-3.3594 -42.559,-3.3594 -14.559,0 -29.121,1.1211 -42.559,3.3594 11.199,-35.84 26.879,-56 42.559,-56 z m 72.801,85.117 c 52.641,14.559 89.602,43.68 89.602,77.281 0,33.602 -36.961,62.719 -89.602,77.281 4.4805,-23.52 6.7188,-49.281 6.7188,-77.281 0.004,-28 -2.2383,-53.758 -6.7188,-77.281 z m 77.281,12.32 c -20.16,-16.801 -49.281,-30.238 -82.879,-38.078 -6.7188,-22.398 -14.559,-41.441 -24.641,-56 48.16,13.441 88.48,49.281 107.52,94.078 z M 378,133.276 l 30.238,-28 c -2.2383,6.7188 -4.4805,14.559 -10.078,19.039 -5.6016,5.6016 -12.32,7.8398 -20.16,8.9609 z m 22.398,-35.84 -30.238,28 c 1.1211,-6.7188 4.4805,-14.559 10.078,-19.039 5.6016,-5.6016 13.441,-7.8438 20.16,-8.9609 z M 313.039,78.393 c 15.68,13.441 22.398,36.961 24.641,52.641 l -79.52,-68.32 c 15.68,0 39.199,2.2422 54.879,15.68 z m -62.719,-6.7188 79.52,68.32 c -15.68,0 -39.199,-2.2383 -56,-15.68 -15.68,-13.441 -21.281,-36.961 -23.52,-52.641 z m 59.359,101.92 c -10.078,14.559 -19.039,32.48 -24.641,56 -33.602,7.8398 -62.719,20.16 -82.879,38.078 19.039,-45.918 58.238,-81.758 107.52,-94.078 z m -108.64,222.88 c 20.16,16.801 49.281,30.238 82.879,38.078 6.7188,22.398 14.559,41.441 24.641,56 -48.16,-14.559 -87.359,-49.277 -107.52,-94.078 z m 193.76,92.961 c 10.078,-14.559 19.039,-33.602 24.641,-56 33.602,-7.8398 62.719,-20.16 82.879,-38.078 -19.039,45.918 -59.359,80.637 -107.52,94.078 z"
       id="path40"
       style="stroke-width:0.828577;fill:#0097a7;fill-opacity:0.64999998" />
  </g>
</svg>
