<?xml version="1.0" encoding="UTF-8" standalone="no"?>
<svg
   xmlns:dc="http://purl.org/dc/elements/1.1/"
   xmlns:cc="http://creativecommons.org/ns#"
   xmlns:rdf="http://www.w3.org/1999/02/22-rdf-syntax-ns#"
   xmlns:svg="http://www.w3.org/2000/svg"
   xmlns="http://www.w3.org/2000/svg"
   xmlns:sodipodi="http://sodipodi.sourceforge.net/DTD/sodipodi-0.dtd"
   xmlns:inkscape="http://www.inkscape.org/namespaces/inkscape"
   width="700pt"
   height="700pt"
   version="1.1"
   viewBox="0 0 700 700"
   id="svg43"
   sodipodi:docname="computer2.svg"
   inkscape:export-filename="C:\Users\wongm\Documents\mwongprofile\assets\computer2.png"
   inkscape:export-xdpi="600.29999"
   inkscape:export-ydpi="600.29999"
   inkscape:version="1.0.1 (3bc2e813f5, 2020-09-07)">
  <metadata
     id="metadata47">
    <rdf:RDF>
      <cc:Work
         rdf:about="">
        <dc:format>image/svg+xml</dc:format>
        <dc:type
           rdf:resource="http://purl.org/dc/dcmitype/StillImage" />
        <dc:title></dc:title>
      </cc:Work>
    </rdf:RDF>
  </metadata>
  <sodipodi:namedview
     pagecolor="#ffffff"
     bordercolor="#666666"
     borderopacity="1"
     objecttolerance="10"
     gridtolerance="10"
     guidetolerance="10"
     inkscape:pageopacity="0"
     inkscape:pageshadow="2"
     inkscape:window-width="3840"
     inkscape:window-height="2120"
     id="namedview45"
     showgrid="false"
     inkscape:zoom="1.0992857"
     inkscape:cx="466.66667"
     inkscape:cy="466.66667"
     inkscape:window-x="-12"
     inkscape:window-y="-12"
     inkscape:window-maximized="1"
     inkscape:current-layer="svg43" />
  <defs
     id="defs23">
    <symbol
       id="g"
       overflow="visible">
      <path
         d="m39.078-2.3281c-2.0117 1.043-4.1094 1.8281-6.2969 2.3594s-4.4648 0.79688-6.8281 0.79688c-7.0859 0-12.699-1.9766-16.844-5.9375-4.1367-3.957-6.2031-9.3281-6.2031-16.109 0-6.7891 2.0664-12.164 6.2031-16.125 4.1445-3.9688 9.7578-5.9531 16.844-5.9531 2.3633 0 4.6406 0.26562 6.8281 0.79688s4.2852 1.3242 6.2969 2.375v8.7969c-2.0312-1.3828-4.0391-2.3984-6.0156-3.0469-1.9688-0.64453-4.0469-0.96875-6.2344-0.96875-3.9062 0-6.9844 1.2578-9.2344 3.7656-2.2422 2.5-3.3594 5.9531-3.3594 10.359 0 4.3867 1.1172 7.8359 3.3594 10.344 2.25 2.5 5.3281 3.75 9.2344 3.75 2.1875 0 4.2656-0.32031 6.2344-0.96875 1.9766-0.64453 3.9844-1.6602 6.0156-3.0469z"
         id="path2" />
    </symbol>
    <symbol
       id="f"
       overflow="visible">
      <path
         d="m16.031-40.953v9.0625h10.516v7.2812h-10.516v13.531c0 1.4805 0.28906 2.4805 0.875 3 0.59375 0.52344 1.7656 0.78125 3.5156 0.78125h5.2344v7.2969h-8.7344c-4.0312 0-6.8867-0.83594-8.5625-2.5156-1.6797-1.6875-2.5156-4.5391-2.5156-8.5625v-13.531h-5.0781v-7.2812h5.0781v-9.0625z"
         id="path5" />
    </symbol>
    <symbol
       id="e"
       overflow="visible">
      <path
         d="m26.594-27.234v-17.078h10.266v44.312h-10.266v-4.6094c-1.3984 1.875-2.9453 3.25-4.6406 4.125-1.6875 0.875-3.6406 1.3125-5.8594 1.3125-3.9297 0-7.1562-1.5625-9.6875-4.6875-2.5234-3.125-3.7812-7.1445-3.7812-12.062 0-4.9141 1.2578-8.9375 3.7812-12.062 2.5312-3.125 5.7578-4.6875 9.6875-4.6875 2.1953 0 4.1445 0.44531 5.8438 1.3281 1.707 0.88672 3.2578 2.2578 4.6562 4.1094zm-6.7188 20.656c2.1875 0 3.8516-0.79688 5-2.3906 1.1445-1.5938 1.7188-3.9102 1.7188-6.9531 0-3.0391-0.57422-5.3594-1.7188-6.9531-1.1484-1.5938-2.8125-2.3906-5-2.3906-2.168 0-3.8242 0.79688-4.9688 2.3906-1.1484 1.5938-1.7188 3.9141-1.7188 6.9531 0 3.043 0.57031 5.3594 1.7188 6.9531 1.1445 1.5938 2.8008 2.3906 4.9688 2.3906z"
         id="path8" />
    </symbol>
    <symbol
       id="d"
       overflow="visible">
      <path
         d="m21.875-6.5781c2.1758 0 3.8359-0.79688 4.9844-2.3906 1.1562-1.5938 1.7344-3.9102 1.7344-6.9531 0-3.0391-0.57812-5.3594-1.7344-6.9531-1.1484-1.5938-2.8086-2.3906-4.9844-2.3906-2.1875 0-3.8672 0.80469-5.0312 2.4062-1.168 1.6055-1.75 3.918-1.75 6.9375 0 3.0234 0.58203 5.3359 1.75 6.9375 1.1641 1.6055 2.8438 2.4062 5.0312 2.4062zm-6.7812-20.656c1.4062-1.8516 2.9609-3.2227 4.6719-4.1094 1.707-0.88281 3.6719-1.3281 5.8906-1.3281 3.9375 0 7.1641 1.5625 9.6875 4.6875 2.5195 3.125 3.7812 7.1484 3.7812 12.062 0 4.918-1.2617 8.9375-3.7812 12.062-2.5234 3.125-5.75 4.6875-9.6875 4.6875-2.2188 0-4.1836-0.44531-5.8906-1.3281-1.7109-0.88281-3.2656-2.2539-4.6719-4.1094v4.6094h-10.188v-44.312h10.188z"
         id="path11" />
    </symbol>
    <symbol
       id="c"
       overflow="visible">
      <path
         d="m0.28125-42.516h39.188v8.2812h-14.094v34.234h-10.969v-34.234h-14.125z"
         id="path14" />
    </symbol>
    <symbol
       id="b"
       overflow="visible">
      <path
         d="m36.969-19.422v19.422h-10.25v-14.812c0-2.7891-0.0625-4.707-0.1875-5.75-0.125-1.0391-0.33984-1.8125-0.64062-2.3125-0.39844-0.65625-0.9375-1.1719-1.625-1.5469s-1.4648-0.5625-2.3281-0.5625c-2.1367 0-3.8125 0.82422-5.0312 2.4688-1.2109 1.6484-1.8125 3.9219-1.8125 6.8281v15.688h-10.188v-44.312h10.188v17.078c1.5391-1.8516 3.1719-3.2227 4.8906-4.1094 1.7266-0.88281 3.6406-1.3281 5.7344-1.3281 3.6875 0 6.4844 1.1328 8.3906 3.3906 1.9062 2.2617 2.8594 5.5469 2.8594 9.8594z"
         id="path17" />
    </symbol>
    <symbol
       id="a"
       overflow="visible">
      <path
         d="m5.3594-42.516h10.953v42.516h-10.953z"
         id="path20" />
    </symbol>
  </defs>
  <g
     id="g58"
     transform="translate(0,70.024558)"
     style="fill:#ffffff">
    <path
       d="m 176.34,266.59 v -11.094 c 0,-3.2227 2.6133,-5.832 5.8359,-5.832 3.2227,0 5.832,2.6094 5.832,5.832 v 11.152 c 0,3.2227 -2.6094,5.8359 -5.832,5.8359 -3.2227,0 -5.8359,-2.6133 -5.8359,-5.8359 z m 5.832,-33.18 h 0.004 c 1.5469,0 3.0312,-0.61328 4.125,-1.707 1.0938,-1.09372 1.707,-2.5781 1.707,-4.125 v -11.152 c 0,-3.2227 -2.6094,-5.8359 -5.832,-5.8359 -3.2227,0 -5.8359,2.6133 -5.8359,5.8359 v 11.152 c 0,1.5469 0.61719,3.0312 1.7109,4.125 1.09371,1.0938 2.5781,1.707 4.125,1.707 z m -17.426,13.918 h 3.6172 c 3.2188,0 5.832,-2.6094 5.832,-5.832 0,-3.2226 -2.6133,-5.832 -5.832,-5.832 h -3.6172 c -3.2227,0 -5.8359,2.6094 -5.8359,5.832 0,3.2226 2.6133,5.832 5.8359,5.832 z m 31.383,0 h 3.6172 c 3.2188,0 5.832,-2.6094 5.832,-5.832 0,-3.2226 -2.6133,-5.832 -5.832,-5.832 h -3.6172 c -3.2227,0 -5.832,2.6094 -5.832,5.832 0,3.2226 2.6094,5.832 5.832,5.832 z m 118.68,163.44 c 0.004,-4.2539 1.6953,-8.3359 4.707,-11.34 3.0078,-3.0078 7.0898,-4.6953 11.344,-4.6914 4.2539,0 8.332,1.6914 11.34,4.7031 3.0078,3.0078 4.6953,7.0898 4.6953,11.344 -0.004,4.2539 -1.6953,8.332 -4.7031,11.34 -3.0078,3.0078 -7.0859,4.6953 -11.34,4.6953 -4.2539,-0.004 -8.332,-1.6992 -11.34,-4.707 -3.0078,-3.0117 -4.6992,-7.0898 -4.7031,-11.344 z m 11.668,0 c 0,1.7695 1.0664,3.3633 2.6992,4.0391 1.6367,0.67969 3.5195,0.30469 4.7695,-0.94531 1.25,-1.2539 1.625,-3.1367 0.94922,-4.7695 -0.67969,-1.6367 -2.2734,-2.6992 -4.043,-2.6992 -2.418,0 -4.375,1.957 -4.375,4.375 z m 210.63,65.953 v -0.004 c 0,1.5469 -0.61328,3.0312 -1.707,4.125 -1.09372,1.0938 -2.5781,1.7109 -4.125,1.7109 h -400.83 c -3.2227,0 -5.832,-2.6133 -5.832,-5.8359 0,-3.2226 2.6094,-5.832 5.832,-5.832 h 49.395 c -1.8164,-1.9531 -3.4023,-4.1055 -4.7344,-6.418 -3.0625,-5.4648 -4.582,-11.664 -4.3945,-17.926 0.1875,-6.2656 2.0742,-12.359 5.457,-17.633 l 40.66,-64.586 -1.5039,-12.273 h -0.004 c -0.61328,-4.9766 0.9375,-9.9727 4.2578,-13.727 3.3203,-3.7578 8.0898,-5.9062 13.102,-5.9102 h 61.707 c 4.2812,-7.1758 6.4961,-15.398 6.3906,-23.754 -8.168,-3.0078 -15.219,-8.4414 -20.207,-15.574 -4.9883,-7.1328 -7.6758,-15.621 -7.6992,-24.324 v -31.383 l -29.82,-44.191 v -0.004 c -1.207,-1.7852 -1.332,-4.0938 -0.32031,-6 1.01169,-1.9062 2.9922,-3.0977 5.1523,-3.0977 h 15.902 l -15.75,-27.941 c -1.0938,-1.9336 -0.99219,-4.3164 0.25391,-6.1484 1.2539,-1.8359 3.4375,-2.7969 5.6367,-2.4883 l 88.422,12.32 c 13.117,1.8828 25.121,8.418 33.82,18.418 8.6953,9.9961 13.508,22.793 13.559,36.043 v 54.449 c -0.0312,8.8477 -2.8125,17.469 -7.9609,24.664 -5.1484,7.195 -12.41,12.609 -20.777,15.492 -0.0742,8.2734 2.1406,16.402 6.3945,23.496 h 61.695 c 5.0117,0 9.7852,2.1484 13.109,5.9062 3.3203,3.7539 4.8711,8.7539 4.2617,13.73 l -1.5156,12.273 40.66,64.598 h -0.004 c 3.375,5.2773 5.2539,11.371 5.4336,17.633 0.17969,6.2617 -1.3477,12.453 -4.418,17.914 -1.3281,2.3125 -2.9141,4.4648 -4.7266,6.418 h 49.398 c 1.5508,0 3.0391,0.61719 4.1328,1.7148 1.0938,1.1016 1.707,2.5898 1.6992,4.1406 z m -221.59,-176.89 h 31.5 c 1.9609,-0.0117 3.9141,-0.21094 5.8359,-0.59375 0.49609,-0.20312 1.0156,-0.33594 1.5508,-0.39844 6.7266,-1.6484 12.711,-5.5 16.996,-10.945 4.2812,-5.4453 6.6211,-12.168 6.6406,-19.094 v -54.484 c -0.0391,-10.441 -3.8281,-20.523 -10.684,-28.402 -6.8555,-7.875 -16.312,-13.027 -26.648,-14.508 l -76.742,-10.723 17.195,30.477 c 1.5156,2.7969 0.50781,6.2969 -2.2656,7.8594 -2.7734,1.5625 -6.2891,0.61328 -7.8984,-2.1328 l -0.64062,-1.168 h -11.551 l 24.688,36.621 c 0.082,0.16406 0.15234,0.33203 0.21094,0.50391 0.1875,0.33984 0.33984,0.69922 0.45312,1.0742 0.12109,0.37891 0.19922,0.76953 0.23438,1.1641 0,0.17578 0.10547,0.33984 0.10547,0.52344 v 33.172 c 0.004,8.2305 3.2695,16.121 9.0859,21.945 5.8164,5.8203 13.707,9.0977 21.934,9.1094 z m -7.9219,32.668 h 46.504 c -2.8047,-6.7305 -4.3867,-13.91 -4.6641,-21.199 -0.80469,0 -1.5625,0.24609 -2.332,0.24609 h -31.5 c -1.0977,0 -2.1367,-0.24609 -3.207,-0.32812 h -0.004 c -0.31641,7.2969 -1.9414,14.477 -4.7969,21.199 z m -80.758,18.211 1.5273,12.414 h 0.004 c 0.46484,1.043 0.60938,2.1992 0.41016,3.3242 l 12.832,103.71 v 0.004 c -0.004,0.26953 -0.0234,0.53516 -0.0586,0.80469 h 178.66 c -0.0195,-0.26953 -0.0195,-0.53906 0,-0.80469 l 12.762,-103.71 v -0.004 c -0.19531,-1.1289 -0.0508,-2.2891 0.41016,-3.3359 l 1.5273,-12.402 c 0.20312,-1.6641 -0.31641,-3.3398 -1.4336,-4.5938 -1.1172,-1.25 -2.7227,-1.9648 -4.3984,-1.9492 h -196.46 c -1.6797,-0.0156 -3.2812,0.69922 -4.3984,1.9492 -1.1172,1.2539 -1.6406,2.9297 -1.4336,4.5938 z m -13.344,120.18 h 16.332 l -5.1562,-41.859 c -6.5039,-0.39844 -13.031,-0.26562 -19.516,0.39453 -0.22656,0.0195 -0.45312,0.0195 -0.67969,0 -3.2188,0.18359 -5.9805,-2.2773 -6.1641,-5.5 -0.18359,-3.2227 2.2773,-5.9805 5.5,-6.1641 6.4531,-0.67578 12.945,-0.85938 19.426,-0.55078 l -4.2695,-34.648 -32.973,52.605 c -2.9727,4.7266 -4.1523,10.367 -3.3242,15.891 0.83203,5.5234 3.6133,10.566 7.8477,14.211 4.2305,3.6484 9.6328,5.6523 15.219,5.6562 z m 242.45,0 c 5.582,-0.004 10.977,-2.0039 15.207,-5.6445 4.2305,-3.6406 7.0195,-8.6758 7.8555,-14.195 0.83594,-5.5195 -0.33594,-11.156 -3.3008,-15.883 l -33.027,-52.5 -4.2695,34.648 c 6.4805,-0.30859 12.973,-0.12891 19.426,0.54688 3.2227,0.18359 5.6836,2.9453 5.5,6.168 -0.18359,3.2227 -2.9453,5.6836 -6.1641,5.5 -0.22656,0.0195 -0.45312,0.0195 -0.67969,0 -6.4883,-0.66406 -13.02,-0.80078 -19.527,-0.40625 l -5.1562,41.871 h 24.16 z m 26.027,-283.5 c -2.3594,0 -4.4844,1.4219 -5.3867,3.6016 -0.90625,2.1797 -0.40625,4.6875 1.2617,6.3555 1.668,1.668 4.1797,2.168 6.3594,1.2656 2.1797,-0.90234 3.6016,-3.0312 3.6016,-5.3906 -0.0195,-3.1992 -2.6133,-5.7852 -5.8125,-5.7969 z m 23.332,0 h 0.004 c -2.3594,0 -4.4883,1.4219 -5.3906,3.6016 -0.90234,2.1797 -0.40625,4.6875 1.2656,6.3555 1.668,1.668 4.1758,2.168 6.3555,1.2656 2.1797,-0.90234 3.6016,-3.0312 3.6016,-5.3906 -0.0195,-3.1992 -2.6133,-5.7852 -5.8125,-5.7969 z m 23.332,0 h 0.004 c -2.3594,0 -4.4883,1.4219 -5.3906,3.6016 -0.90234,2.1797 -0.40234,4.6875 1.2656,6.3555 1.668,1.668 4.1758,2.168 6.3555,1.2656 2.1797,-0.90234 3.6016,-3.0312 3.6016,-5.3906 -0.0195,-3.1992 -2.6094,-5.7852 -5.8086,-5.7969 z m -104.71,54.691 h 4.4688 c 5.4219,0 10.426,2.8906 13.137,7.5859 2.707,4.6914 2.707,10.473 0,15.164 -2.7109,4.6953 -7.7148,7.5859 -13.137,7.5859 h -4.4688 0.004 c -5.4219,0 -10.426,-2.8906 -13.137,-7.5859 -2.7109,-4.6914 -2.7109,-10.473 0,-15.164 2.7109,-4.6953 7.7148,-7.5859 13.137,-7.5859 z m 4.4688,11.668 h -4.4688 0.004 c -1.9336,0 -3.5,1.5664 -3.5,3.5 0,1.9336 1.5664,3.5 3.5,3.5 h 4.4688 -0.004 c 1.9336,0 3.5,-1.5664 3.5,-3.5 0,-1.9336 -1.5664,-3.5 -3.5,-3.5 z m 147,-73.652 v 26.25 c 0,10.832 -4.3008,21.215 -11.957,28.875 -7.6602,7.6562 -18.047,11.961 -28.875,11.961 h -58.449 c -10.832,0 -21.215,-4.3047 -28.875,-11.961 -7.6562,-7.6602 -11.957,-18.043 -11.957,-28.875 v -26.215 c 0,-10.828 4.3008,-21.215 11.957,-28.871 7.6602,-7.6602 18.043,-11.961 28.875,-11.961 h 58.449 c 10.828,0.004 21.211,4.3047 28.867,11.965 7.6523,7.6562 11.953,18.039 11.953,28.867 z m -11.668,0 h 0.004 c 0,-7.7344 -3.0742,-15.152 -8.543,-20.625 -5.4688,-5.4688 -12.891,-8.5391 -20.625,-8.5391 h -58.449 c -7.7344,0 -15.156,3.0703 -20.625,8.5391 -5.4688,5.4727 -8.543,12.891 -8.543,20.625 v 26.25 c 0,7.7344 3.0742,15.156 8.543,20.625 5.4688,5.469 12.891,8.543 20.625,8.543 h 58.449 c 7.7344,0 15.156,-3.0742 20.625,-8.543 5.469,-5.4688 8.543,-12.891 8.543,-20.625 z m -167.06,-72.367 c 1.5469,0 3.0312,-0.61328 4.125,-1.7109 1.0938,-1.0938 1.707,-2.5742 1.707,-4.1211 V 83.23 c 0,-3.2227 -2.6133,-5.832 -5.832,-5.832 -3.2227,0 -5.8359,2.6094 -5.8359,5.832 v 18.668 c 0,1.5469 0.61719,3.0273 1.7109,4.1211 1.0938,1.0977 2.5781,1.7109 4.125,1.7109 z m 13.812,14 h 9.332 c 3.2227,0 5.8359,-2.6133 5.8359,-5.832 0,-3.2227 -2.6133,-5.8359 -5.8359,-5.8359 h -9.332 c -3.2227,0 -5.832,2.6133 -5.832,5.8359 0,3.2188 2.6094,5.832 5.832,5.832 z m -14,32.434 c 1.5469,0 3.0312,-0.61719 4.125,-1.7109 1.0938,-1.09371 1.707,-2.5742 1.707,-4.125 v -18.668 0.004 c 0,-3.2227 -2.6094,-5.8359 -5.832,-5.8359 -3.2227,0 -5.832,2.6133 -5.832,5.8359 v 18.668 -0.004 c 0,3.2148 2.5938,5.8242 5.8086,5.8359 z m -23.148,-32.621 h 9.3359 c 3.2188,0 5.832,-2.6094 5.832,-5.832 0,-3.2227 -2.6133,-5.8359 -5.832,-5.8359 h -9.3359 c -3.2188,0 -5.832,2.6133 -5.832,5.8359 0,3.2227 2.6133,5.832 5.832,5.832 z"
       id="path25"
       style="fill:#ffffff" />
  </g>
</svg>
